<svg width="32" height="32" viewBox="0 0 32 32" fill="none" xmlns="http://www.w3.org/2000/svg">
<path fill-rule="evenodd" clip-rule="evenodd" d="M6.78817 2.28119C6.25268 2.28119 5.8186 2.71556 5.8186 3.25076V28.4595C5.8186 28.8425 6.04393 29.1896 6.39375 29.3448C6.74348 29.5009 7.15215 29.4359 7.43681 29.1799L16.4839 21.0375L25.5309 29.1799C25.816 29.4359 26.2241 29.5009 26.5742 29.3448C26.9242 29.1896 27.1491 28.8425 27.1491 28.4595V3.25076C27.1491 2.71556 26.7147 2.28119 26.1795 2.28119H6.78817ZM15.8352 19.013L7.7577 26.2829V4.22033H25.2099V26.2829L17.1325 19.013C16.7637 18.6805 16.2039 18.6805 15.8352 19.013Z" fill="#999999"/>
</svg>
