<svg width="32" height="32" viewBox="0 0 32 32" fill="none" xmlns="http://www.w3.org/2000/svg">
<path fill-rule="evenodd" clip-rule="evenodd" d="M18.1094 5.36215C17.8168 5.13624 17.4211 5.09552 17.0891 5.25841C16.757 5.42129 16.5466 5.75967 16.5466 6.12908V10.624H12.8207C7.18708 10.624 2.62012 15.1916 2.62012 20.8248C2.62012 21.4987 2.77961 22.125 3.22532 22.5555C3.68878 23.0034 4.26024 23.049 4.65505 22.9831C5.08583 22.9113 5.37166 22.6534 5.50691 22.5187C7.71258 20.3226 10.7008 19.0864 13.8189 19.0864H16.5466V23.5813C16.5466 23.9507 16.757 24.2891 17.0891 24.452C17.4211 24.6149 17.8168 24.5742 18.1094 24.3482L29.3917 15.6221C29.629 15.4389 29.768 15.1558 29.768 14.8552C29.768 14.5546 29.629 14.2715 29.3917 14.0883L18.1094 5.36215ZM17.5162 12.5631C18.0517 12.5631 18.4857 12.1297 18.4857 11.5936V8.10506L27.2137 14.8552L18.4857 21.6053V18.1168C18.4857 17.5807 18.0517 17.1473 17.5162 17.1473H13.8189C10.3823 17.1473 7.08119 18.4358 4.55964 20.7434C4.60356 16.2184 8.2853 12.5631 12.8207 12.5631H17.5162Z" fill="#999999"/>
</svg>
