<svg width="32" height="32" viewBox="0 0 32 32" fill="none" xmlns="http://www.w3.org/2000/svg">
<path fill-rule="evenodd" clip-rule="evenodd" d="M2.19946 3.25076C2.19946 2.71528 2.63355 2.28119 3.16903 2.28119H28.3778C28.9133 2.28119 29.3474 2.71528 29.3474 3.25076V23.1269C29.3474 23.6624 28.9133 24.0965 28.3778 24.0965H8.44578L3.88645 29.1118C3.617 29.4082 3.19303 29.5083 2.81941 29.3639C2.44579 29.2194 2.19946 28.8601 2.19946 28.4595V3.25076ZM4.13867 4.22033V25.9517L7.29953 22.4747C7.48328 22.2726 7.74378 22.1573 8.01695 22.1573H27.4083V4.22033H4.13867ZM23.53 11.0073H8.01695V9.06817H23.53V11.0073ZM8.01695 16.8247H15.7735V14.8856H8.01695V16.8247Z" fill="#999999"/>
</svg>
