<svg width="70" height="22" viewBox="0 0 70 22" fill="none" xmlns="http://www.w3.org/2000/svg">
<path d="M4.87891 17.7051H13.5879V21H0.777344V1.09375H4.87891V17.7051ZM31.4297 11.498C31.4297 13.4577 31.0833 15.1758 30.3906 16.6523C29.6979 18.1289 28.7044 19.2682 27.4102 20.0703C26.125 20.8724 24.6484 21.2734 22.9805 21.2734C21.3307 21.2734 19.8587 20.877 18.5645 20.084C17.2702 19.291 16.2676 18.1608 15.5566 16.6934C14.8457 15.2168 14.4857 13.5215 14.4766 11.6074V10.623C14.4766 8.66341 14.8275 6.94076 15.5293 5.45508C16.2402 3.96029 17.2383 2.81641 18.5234 2.02344C19.8177 1.22135 21.2943 0.820312 22.9531 0.820312C24.612 0.820312 26.084 1.22135 27.3691 2.02344C28.6634 2.81641 29.6615 3.96029 30.3633 5.45508C31.0742 6.94076 31.4297 8.65885 31.4297 10.6094V11.498ZM27.2734 10.5957C27.2734 8.50846 26.8997 6.92253 26.1523 5.83789C25.4049 4.75326 24.3385 4.21094 22.9531 4.21094C21.5768 4.21094 20.515 4.7487 19.7676 5.82422C19.0202 6.89062 18.6419 8.45833 18.6328 10.5273V11.498C18.6328 13.5306 19.0065 15.1074 19.7539 16.2285C20.5013 17.3496 21.5768 17.9102 22.9805 17.9102C24.3568 17.9102 25.4141 17.3724 26.1523 16.2969C26.8906 15.2122 27.2643 13.6354 27.2734 11.5664V10.5957ZM50.1602 18.4844C49.4219 19.3685 48.3783 20.0566 47.0293 20.5488C45.6803 21.0319 44.1855 21.2734 42.5449 21.2734C40.8223 21.2734 39.3092 20.8997 38.0059 20.1523C36.7116 19.3958 35.709 18.3021 34.998 16.8711C34.2962 15.4401 33.9362 13.7585 33.918 11.8262V10.4727C33.918 8.48568 34.2507 6.76758 34.916 5.31836C35.5905 3.86003 36.5566 2.74805 37.8145 1.98242C39.0814 1.20768 40.5625 0.820312 42.2578 0.820312C44.6185 0.820312 46.4642 1.38542 47.7949 2.51562C49.1257 3.63672 49.9141 5.27279 50.1602 7.42383H46.168C45.9857 6.28451 45.5801 5.45052 44.9512 4.92188C44.3314 4.39323 43.4746 4.12891 42.3809 4.12891C40.9863 4.12891 39.9245 4.65299 39.1953 5.70117C38.4661 6.74935 38.097 8.30794 38.0879 10.377V11.6484C38.0879 13.7357 38.4844 15.3125 39.2773 16.3789C40.0703 17.4453 41.2324 17.9785 42.7637 17.9785C44.304 17.9785 45.4023 17.6504 46.0586 16.9941V13.5625H42.3262V10.541H50.1602V18.4844ZM69.8477 11.498C69.8477 13.4577 69.5013 15.1758 68.8086 16.6523C68.1159 18.1289 67.1224 19.2682 65.8281 20.0703C64.543 20.8724 63.0664 21.2734 61.3984 21.2734C59.7487 21.2734 58.2767 20.877 56.9824 20.084C55.6882 19.291 54.6855 18.1608 53.9746 16.6934C53.2637 15.2168 52.9036 13.5215 52.8945 11.6074V10.623C52.8945 8.66341 53.2454 6.94076 53.9473 5.45508C54.6582 3.96029 55.6562 2.81641 56.9414 2.02344C58.2357 1.22135 59.7122 0.820312 61.3711 0.820312C63.0299 0.820312 64.502 1.22135 65.7871 2.02344C67.0814 2.81641 68.0794 3.96029 68.7812 5.45508C69.4922 6.94076 69.8477 8.65885 69.8477 10.6094V11.498ZM65.6914 10.5957C65.6914 8.50846 65.3177 6.92253 64.5703 5.83789C63.8229 4.75326 62.7565 4.21094 61.3711 4.21094C59.9948 4.21094 58.9329 4.7487 58.1855 5.82422C57.4382 6.89062 57.0599 8.45833 57.0508 10.5273V11.498C57.0508 13.5306 57.4245 15.1074 58.1719 16.2285C58.9193 17.3496 59.9948 17.9102 61.3984 17.9102C62.7747 17.9102 63.832 17.3724 64.5703 16.2969C65.3086 15.2122 65.6823 13.6354 65.6914 11.5664V10.5957Z" fill="white"/>
</svg>
