<svg width="20" height="20" viewBox="0 0 20 20" fill="none" xmlns="http://www.w3.org/2000/svg">
<path fill-rule="evenodd" clip-rule="evenodd" d="M13.7177 12.8835H14.6394L19.586 17.8535C20.0644 18.3318 20.0644 19.1135 19.586 19.5918C19.1077 20.0701 18.326 20.0701 17.8477 19.5918L12.8894 14.6335V13.7118L12.5744 13.3851C10.941 14.7851 8.71269 15.5085 6.34436 15.1118C3.10103 14.5635 0.511028 11.8568 0.114361 8.59014C-0.492306 3.65514 3.66103 -0.498196 8.59603 0.108471C11.8627 0.505138 14.5694 3.09514 15.1177 6.33847C15.5144 8.70681 14.791 10.9351 13.391 12.5685L13.7177 12.8835ZM2.38935 7.63347C2.38935 10.5385 4.73435 12.8835 7.63935 12.8835C10.5443 12.8835 12.8893 10.5385 12.8893 7.63347C12.8893 4.72847 10.5443 2.38347 7.63935 2.38347C4.73435 2.38347 2.38935 4.72847 2.38935 7.63347Z" fill="white"/>
</svg>
